<mxfile host="app.diagrams.net" modified="2024-05-29T10:37:59.567Z" agent="Mozilla/5.0 (Windows NT 10.0; Win64; x64) AppleWebKit/537.36 (KHTML, like Gecko) Chrome/125.0.0.0 Safari/537.36" etag="9EmIQ9VNYhmQuse1UG5d" version="24.4.9" type="device" pages="2">
  <diagram id="ofzvjxtUMxq_65fK6P0l" name="Strona-2">
    <mxGraphModel dx="1290" dy="557" grid="1" gridSize="10" guides="1" tooltips="1" connect="1" arrows="1" fold="1" page="1" pageScale="1" pageWidth="827" pageHeight="1169" math="0" shadow="0">
      <root>
        <mxCell id="0" />
        <mxCell id="1" parent="0" />
        <mxCell id="bUUPd3Zs3Nt75jsbdVt8-1" value="&lt;b&gt;brak produktu na stanie magazynu&lt;/b&gt;" style="rounded=1;whiteSpace=wrap;html=1;arcSize=40;fontColor=#000000;fillColor=#E6D0DE;strokeColor=#B5739D;" vertex="1" parent="1">
          <mxGeometry x="354" y="110" width="120" height="40" as="geometry" />
        </mxCell>
        <mxCell id="-2IM4ooKc-PIxNZPHvFU-1" value="" style="ellipse;html=1;shape=startState;fillColor=#B5739D;strokeColor=#99004D;" vertex="1" parent="1">
          <mxGeometry x="399" y="40" width="30" height="30" as="geometry" />
        </mxCell>
        <mxCell id="rI3SJqsEYtlkKiS6COhy-1" value="" style="edgeStyle=orthogonalEdgeStyle;html=1;verticalAlign=bottom;endArrow=open;endSize=8;strokeColor=#99004D;rounded=0;entryX=0.5;entryY=0;entryDx=0;entryDy=0;exitX=0.5;exitY=1;exitDx=0;exitDy=0;" edge="1" parent="1" source="-2IM4ooKc-PIxNZPHvFU-1" target="bUUPd3Zs3Nt75jsbdVt8-1">
          <mxGeometry relative="1" as="geometry">
            <mxPoint x="330" y="120" as="targetPoint" />
            <mxPoint x="330" y="90" as="sourcePoint" />
          </mxGeometry>
        </mxCell>
        <mxCell id="KSBi6MtXvnXOiyD8G3rt-1" value="&lt;b&gt;produkcja produktu w fabryce&amp;nbsp;&lt;/b&gt;" style="rounded=1;whiteSpace=wrap;html=1;arcSize=40;fontColor=#000000;fillColor=#E6D0DE;strokeColor=#B5739D;" vertex="1" parent="1">
          <mxGeometry x="354" y="200" width="120" height="40" as="geometry" />
        </mxCell>
        <mxCell id="8TO6XUAPhnoCAKuRfueM-1" value="" style="edgeStyle=orthogonalEdgeStyle;html=1;verticalAlign=bottom;endArrow=open;endSize=8;strokeColor=#99004D;rounded=0;entryX=0.5;entryY=0;entryDx=0;entryDy=0;exitX=0.5;exitY=1;exitDx=0;exitDy=0;" edge="1" parent="1" source="bUUPd3Zs3Nt75jsbdVt8-1" target="KSBi6MtXvnXOiyD8G3rt-1">
          <mxGeometry relative="1" as="geometry">
            <mxPoint x="410" y="220" as="targetPoint" />
            <mxPoint x="410" y="180" as="sourcePoint" />
          </mxGeometry>
        </mxCell>
        <mxCell id="8TO6XUAPhnoCAKuRfueM-2" value="złożenie zamówienia do fabryki" style="text;html=1;align=center;verticalAlign=middle;resizable=0;points=[];autosize=1;strokeColor=none;fillColor=none;" vertex="1" parent="1">
          <mxGeometry x="224" y="160" width="190" height="30" as="geometry" />
        </mxCell>
        <mxCell id="4ggd-0vQ59xwSDjCTe_t-1" value="" style="edgeStyle=orthogonalEdgeStyle;html=1;verticalAlign=bottom;endArrow=open;endSize=8;strokeColor=#99004D;rounded=0;exitX=0.5;exitY=1;exitDx=0;exitDy=0;" edge="1" parent="1" source="KSBi6MtXvnXOiyD8G3rt-1">
          <mxGeometry relative="1" as="geometry">
            <mxPoint x="414" y="290" as="targetPoint" />
            <mxPoint x="400" y="270" as="sourcePoint" />
          </mxGeometry>
        </mxCell>
        <mxCell id="4ggd-0vQ59xwSDjCTe_t-2" value="&lt;b&gt;transport produktu do magazynu&amp;nbsp;&lt;/b&gt;" style="rounded=1;whiteSpace=wrap;html=1;arcSize=40;fontColor=#000000;fillColor=#E6D0DE;strokeColor=#B5739D;" vertex="1" parent="1">
          <mxGeometry x="354" y="290" width="120" height="40" as="geometry" />
        </mxCell>
        <mxCell id="4ggd-0vQ59xwSDjCTe_t-3" value="pomyślne zakończenie etapu produkcji" style="text;html=1;align=center;verticalAlign=middle;resizable=0;points=[];autosize=1;strokeColor=none;fillColor=none;" vertex="1" parent="1">
          <mxGeometry x="184" y="248" width="230" height="30" as="geometry" />
        </mxCell>
        <mxCell id="Yf4o4XDhHIg3kkVghhlR-1" value="" style="rhombus;whiteSpace=wrap;html=1;fontColor=#000000;fillColor=#E6D0DE;strokeColor=#B5739D;" vertex="1" parent="1">
          <mxGeometry x="374" y="380" width="80" height="40" as="geometry" />
        </mxCell>
        <mxCell id="Yf4o4XDhHIg3kkVghhlR-2" value="" style="edgeStyle=orthogonalEdgeStyle;html=1;verticalAlign=bottom;endArrow=open;endSize=8;strokeColor=#99004D;rounded=0;entryX=0.5;entryY=0;entryDx=0;entryDy=0;exitX=0.5;exitY=1;exitDx=0;exitDy=0;" edge="1" parent="1" source="4ggd-0vQ59xwSDjCTe_t-2" target="Yf4o4XDhHIg3kkVghhlR-1">
          <mxGeometry relative="1" as="geometry">
            <mxPoint x="410" y="390" as="targetPoint" />
            <mxPoint x="410" y="350" as="sourcePoint" />
          </mxGeometry>
        </mxCell>
        <mxCell id="d_vpuGSjmXVoejLvvYyg-1" value="" style="ellipse;html=1;shape=endState;fillColor=#B5739D;strokeColor=#99004D;" vertex="1" parent="1">
          <mxGeometry x="710" y="590" width="30" height="30" as="geometry" />
        </mxCell>
        <mxCell id="d_vpuGSjmXVoejLvvYyg-2" value="" style="edgeStyle=orthogonalEdgeStyle;html=1;verticalAlign=bottom;endArrow=open;endSize=8;strokeColor=#99004D;rounded=0;entryX=0.5;entryY=0;entryDx=0;entryDy=0;exitX=1;exitY=0.5;exitDx=0;exitDy=0;" edge="1" parent="1" source="Yf4o4XDhHIg3kkVghhlR-1" target="d_vpuGSjmXVoejLvvYyg-1">
          <mxGeometry relative="1" as="geometry">
            <mxPoint x="560" y="430" as="targetPoint" />
            <mxPoint x="560" y="390" as="sourcePoint" />
          </mxGeometry>
        </mxCell>
        <mxCell id="23q8Golg2cn5t2KisQ9u-1" value="produkt w stanie nienaruszonym dotarł do magazynu == false" style="text;html=1;align=center;verticalAlign=middle;resizable=0;points=[];autosize=1;strokeColor=none;fillColor=none;" vertex="1" parent="1">
          <mxGeometry x="440" y="370" width="350" height="30" as="geometry" />
        </mxCell>
        <mxCell id="23q8Golg2cn5t2KisQ9u-3" value="" style="edgeStyle=orthogonalEdgeStyle;html=1;verticalAlign=bottom;endArrow=open;endSize=8;strokeColor=#99004D;rounded=0;exitX=0.5;exitY=1;exitDx=0;exitDy=0;" edge="1" parent="1" source="Yf4o4XDhHIg3kkVghhlR-1">
          <mxGeometry relative="1" as="geometry">
            <mxPoint x="414" y="460" as="targetPoint" />
            <mxPoint x="290" y="420" as="sourcePoint" />
          </mxGeometry>
        </mxCell>
        <mxCell id="23q8Golg2cn5t2KisQ9u-4" value="produkt w stanie nienaruszonym dotarł do magazynu == true" style="text;html=1;align=center;verticalAlign=middle;resizable=0;points=[];autosize=1;strokeColor=none;fillColor=none;" vertex="1" parent="1">
          <mxGeometry x="64" y="420" width="350" height="30" as="geometry" />
        </mxCell>
        <mxCell id="23q8Golg2cn5t2KisQ9u-5" value="&lt;b&gt;przygotowanie produktu do wysyłki&amp;nbsp;&lt;/b&gt;" style="rounded=1;whiteSpace=wrap;html=1;arcSize=40;fontColor=#000000;fillColor=#E6D0DE;strokeColor=#B5739D;" vertex="1" parent="1">
          <mxGeometry x="354" y="585" width="120" height="40" as="geometry" />
        </mxCell>
        <mxCell id="23q8Golg2cn5t2KisQ9u-6" value="" style="edgeStyle=orthogonalEdgeStyle;html=1;verticalAlign=bottom;endArrow=open;endSize=8;strokeColor=#99004D;rounded=0;entryX=0.5;entryY=0;entryDx=0;entryDy=0;exitX=0.5;exitY=1;exitDx=0;exitDy=0;" edge="1" parent="1" source="9F2NgOD42CTmdaRrDqf4-2" target="23q8Golg2cn5t2KisQ9u-5">
          <mxGeometry relative="1" as="geometry">
            <mxPoint x="420" y="570" as="targetPoint" />
            <mxPoint x="414" y="510" as="sourcePoint" />
          </mxGeometry>
        </mxCell>
        <mxCell id="23q8Golg2cn5t2KisQ9u-7" value="złożenie zamówienia na dany produkt" style="text;html=1;align=center;verticalAlign=middle;resizable=0;points=[];autosize=1;strokeColor=none;fillColor=none;" vertex="1" parent="1">
          <mxGeometry x="194" y="540" width="220" height="30" as="geometry" />
        </mxCell>
        <mxCell id="23q8Golg2cn5t2KisQ9u-8" value="" style="rhombus;whiteSpace=wrap;html=1;fontColor=#000000;fillColor=#E6D0DE;strokeColor=#B5739D;" vertex="1" parent="1">
          <mxGeometry x="374" y="670" width="80" height="40" as="geometry" />
        </mxCell>
        <mxCell id="23q8Golg2cn5t2KisQ9u-9" value="" style="edgeStyle=orthogonalEdgeStyle;html=1;verticalAlign=bottom;endArrow=open;endSize=8;strokeColor=#99004D;rounded=0;entryX=0.5;entryY=0;entryDx=0;entryDy=0;exitX=0.5;exitY=1;exitDx=0;exitDy=0;" edge="1" parent="1" source="23q8Golg2cn5t2KisQ9u-5" target="23q8Golg2cn5t2KisQ9u-8">
          <mxGeometry relative="1" as="geometry">
            <mxPoint x="490" y="690" as="targetPoint" />
            <mxPoint x="490" y="650" as="sourcePoint" />
          </mxGeometry>
        </mxCell>
        <mxCell id="23q8Golg2cn5t2KisQ9u-10" value="" style="edgeStyle=orthogonalEdgeStyle;html=1;verticalAlign=bottom;endArrow=open;endSize=8;strokeColor=#99004D;rounded=0;entryX=0;entryY=0.5;entryDx=0;entryDy=0;exitX=1;exitY=0.5;exitDx=0;exitDy=0;" edge="1" parent="1" source="23q8Golg2cn5t2KisQ9u-8" target="d_vpuGSjmXVoejLvvYyg-1">
          <mxGeometry relative="1" as="geometry">
            <mxPoint x="490" y="710" as="targetPoint" />
            <mxPoint x="490" y="670" as="sourcePoint" />
            <Array as="points">
              <mxPoint x="680" y="690" />
              <mxPoint x="680" y="605" />
            </Array>
          </mxGeometry>
        </mxCell>
        <mxCell id="23q8Golg2cn5t2KisQ9u-11" value="na stanie magazynu znajduje się&amp;nbsp;&lt;div&gt;wystarczająca ilość produktu == false&lt;/div&gt;" style="text;html=1;align=center;verticalAlign=middle;resizable=0;points=[];autosize=1;strokeColor=none;fillColor=none;" vertex="1" parent="1">
          <mxGeometry x="454" y="650" width="220" height="40" as="geometry" />
        </mxCell>
        <mxCell id="23q8Golg2cn5t2KisQ9u-12" value="&lt;b&gt;transport produktu do klienta&lt;/b&gt;" style="rounded=1;whiteSpace=wrap;html=1;arcSize=40;fontColor=#000000;fillColor=#E6D0DE;strokeColor=#B5739D;" vertex="1" parent="1">
          <mxGeometry x="354" y="760" width="120" height="40" as="geometry" />
        </mxCell>
        <mxCell id="23q8Golg2cn5t2KisQ9u-13" value="" style="edgeStyle=orthogonalEdgeStyle;html=1;verticalAlign=bottom;endArrow=open;endSize=8;strokeColor=#99004D;rounded=0;entryX=0.5;entryY=0;entryDx=0;entryDy=0;exitX=0.5;exitY=1;exitDx=0;exitDy=0;" edge="1" parent="1" source="23q8Golg2cn5t2KisQ9u-8" target="23q8Golg2cn5t2KisQ9u-12">
          <mxGeometry relative="1" as="geometry">
            <mxPoint x="340" y="755" as="targetPoint" />
            <mxPoint x="340" y="710" as="sourcePoint" />
          </mxGeometry>
        </mxCell>
        <mxCell id="23q8Golg2cn5t2KisQ9u-14" value="na stanie magazynu znajduje się&amp;nbsp;&lt;div&gt;wystarczająca ilość produktu == true&lt;/div&gt;" style="text;html=1;align=center;verticalAlign=middle;resizable=0;points=[];autosize=1;strokeColor=none;fillColor=none;" vertex="1" parent="1">
          <mxGeometry x="194" y="710" width="220" height="40" as="geometry" />
        </mxCell>
        <mxCell id="23q8Golg2cn5t2KisQ9u-15" value="" style="rhombus;whiteSpace=wrap;html=1;fontColor=#000000;fillColor=#E6D0DE;strokeColor=#B5739D;" vertex="1" parent="1">
          <mxGeometry x="374" y="850" width="80" height="40" as="geometry" />
        </mxCell>
        <mxCell id="23q8Golg2cn5t2KisQ9u-16" value="" style="edgeStyle=orthogonalEdgeStyle;html=1;verticalAlign=bottom;endArrow=open;endSize=8;strokeColor=#99004D;rounded=0;exitX=0.5;exitY=1;exitDx=0;exitDy=0;" edge="1" parent="1" source="23q8Golg2cn5t2KisQ9u-12">
          <mxGeometry relative="1" as="geometry">
            <mxPoint x="414" y="850" as="targetPoint" />
            <mxPoint x="410" y="840" as="sourcePoint" />
          </mxGeometry>
        </mxCell>
        <mxCell id="23q8Golg2cn5t2KisQ9u-17" value="" style="edgeStyle=orthogonalEdgeStyle;html=1;verticalAlign=bottom;endArrow=open;endSize=8;strokeColor=#99004D;rounded=0;entryX=0.5;entryY=1;entryDx=0;entryDy=0;exitX=1;exitY=0.5;exitDx=0;exitDy=0;" edge="1" parent="1" source="23q8Golg2cn5t2KisQ9u-15" target="d_vpuGSjmXVoejLvvYyg-1">
          <mxGeometry relative="1" as="geometry">
            <mxPoint x="610" y="865" as="targetPoint" />
            <mxPoint x="610" y="820" as="sourcePoint" />
          </mxGeometry>
        </mxCell>
        <mxCell id="23q8Golg2cn5t2KisQ9u-19" value="produkt w stanie nienaruszonym dotarł&amp;nbsp;&lt;div&gt;na miejsce dostawy == false&lt;/div&gt;" style="text;html=1;align=center;verticalAlign=middle;resizable=0;points=[];autosize=1;strokeColor=none;fillColor=none;" vertex="1" parent="1">
          <mxGeometry x="460" y="830" width="230" height="40" as="geometry" />
        </mxCell>
        <mxCell id="23q8Golg2cn5t2KisQ9u-20" value="" style="edgeStyle=orthogonalEdgeStyle;html=1;verticalAlign=bottom;endArrow=open;endSize=8;strokeColor=#99004D;rounded=0;exitX=0.5;exitY=1;exitDx=0;exitDy=0;" edge="1" parent="1" source="23q8Golg2cn5t2KisQ9u-15">
          <mxGeometry relative="1" as="geometry">
            <mxPoint x="414" y="940" as="targetPoint" />
            <mxPoint x="410" y="930" as="sourcePoint" />
          </mxGeometry>
        </mxCell>
        <mxCell id="23q8Golg2cn5t2KisQ9u-21" value="&lt;b&gt;odbiór produktu przez klienta&lt;/b&gt;" style="rounded=1;whiteSpace=wrap;html=1;arcSize=40;fontColor=#000000;fillColor=#E6D0DE;strokeColor=#B5739D;" vertex="1" parent="1">
          <mxGeometry x="339" y="1040" width="150" height="40" as="geometry" />
        </mxCell>
        <mxCell id="23q8Golg2cn5t2KisQ9u-22" value="produkt w stanie nienaruszonym dotarł&amp;nbsp;&lt;div&gt;na miejsce dostawy == true&lt;/div&gt;" style="text;html=1;align=center;verticalAlign=middle;resizable=0;points=[];autosize=1;strokeColor=none;fillColor=none;" vertex="1" parent="1">
          <mxGeometry x="184" y="890" width="230" height="40" as="geometry" />
        </mxCell>
        <mxCell id="23q8Golg2cn5t2KisQ9u-23" value="" style="edgeStyle=orthogonalEdgeStyle;html=1;verticalAlign=bottom;endArrow=open;endSize=8;strokeColor=#99004D;rounded=0;exitX=1;exitY=0.5;exitDx=0;exitDy=0;entryX=1;entryY=0.5;entryDx=0;entryDy=0;" edge="1" parent="1" source="23q8Golg2cn5t2KisQ9u-21" target="d_vpuGSjmXVoejLvvYyg-1">
          <mxGeometry relative="1" as="geometry">
            <mxPoint x="763" y="603.5" as="targetPoint" />
            <mxPoint x="500" y="956" as="sourcePoint" />
            <Array as="points">
              <mxPoint x="760" y="1060" />
              <mxPoint x="760" y="605" />
            </Array>
          </mxGeometry>
        </mxCell>
        <mxCell id="9F2NgOD42CTmdaRrDqf4-1" value="odbiór produktu przez magazyn" style="swimlane;fontStyle=1;align=center;verticalAlign=middle;childLayout=stackLayout;horizontal=1;startSize=30;horizontalStack=0;resizeParent=0;resizeLast=1;container=0;fontColor=#000000;collapsible=0;rounded=1;arcSize=30;strokeColor=#B5739D;fillColor=#E6D0DE;swimlaneFillColor=#ffffc0;dropTarget=0;" vertex="1" parent="1">
          <mxGeometry x="272" y="460" width="284" height="70" as="geometry" />
        </mxCell>
        <mxCell id="9F2NgOD42CTmdaRrDqf4-2" value="&amp;nbsp;sortowanie produktów&lt;div&gt;&amp;nbsp;umieszczenie produktów na odpowiednim dziale&lt;/div&gt;" style="text;html=1;strokeColor=none;fillColor=#E6D0DE;align=center;verticalAlign=middle;spacingLeft=4;spacingRight=4;whiteSpace=wrap;overflow=hidden;rotatable=0;fontColor=#000000;" vertex="1" parent="9F2NgOD42CTmdaRrDqf4-1">
          <mxGeometry y="30" width="284" height="40" as="geometry" />
        </mxCell>
        <mxCell id="oouXZ0_zjJmVnP9WUsTb-1" value="" style="shape=line;html=1;strokeWidth=6;strokeColor=#B5739D;fillColor=#B5739D;" vertex="1" parent="1">
          <mxGeometry x="314" y="940" width="200" height="10" as="geometry" />
        </mxCell>
        <mxCell id="oouXZ0_zjJmVnP9WUsTb-2" value="" style="edgeStyle=orthogonalEdgeStyle;html=1;verticalAlign=bottom;endArrow=open;endSize=8;strokeColor=#99004D;rounded=0;exitX=0.22;exitY=0.58;exitDx=0;exitDy=0;exitPerimeter=0;" edge="1" parent="1" source="oouXZ0_zjJmVnP9WUsTb-1">
          <mxGeometry relative="1" as="geometry">
            <mxPoint x="358" y="1040" as="targetPoint" />
            <mxPoint x="390" y="980" as="sourcePoint" />
          </mxGeometry>
        </mxCell>
        <mxCell id="oouXZ0_zjJmVnP9WUsTb-3" value="" style="edgeStyle=orthogonalEdgeStyle;html=1;verticalAlign=bottom;endArrow=open;endSize=8;strokeColor=#99004D;rounded=0;exitX=0.75;exitY=0.5;exitDx=0;exitDy=0;exitPerimeter=0;" edge="1" parent="1" source="oouXZ0_zjJmVnP9WUsTb-1">
          <mxGeometry relative="1" as="geometry">
            <mxPoint x="464" y="1040" as="targetPoint" />
            <mxPoint x="460" y="980" as="sourcePoint" />
            <Array as="points" />
          </mxGeometry>
        </mxCell>
        <mxCell id="WVCCd7vCh7--6wuOssPX-2" value="potwierdzenie odbioru produktu" style="text;html=1;align=center;verticalAlign=middle;resizable=0;points=[];autosize=1;strokeColor=none;fillColor=none;" vertex="1" parent="1">
          <mxGeometry x="164" y="978" width="190" height="30" as="geometry" />
        </mxCell>
        <mxCell id="WVCCd7vCh7--6wuOssPX-3" value="zabezpieczenie produktu do chwili&amp;nbsp;&lt;div&gt;przekazania go klientowi&lt;/div&gt;" style="text;html=1;align=center;verticalAlign=middle;resizable=0;points=[];autosize=1;strokeColor=none;fillColor=none;" vertex="1" parent="1">
          <mxGeometry x="464" y="973" width="210" height="40" as="geometry" />
        </mxCell>
      </root>
    </mxGraphModel>
  </diagram>
  <diagram id="cQUaR9dfDrzo7mjEV9v8" name="Strona-3">
    <mxGraphModel dx="1290" dy="557" grid="1" gridSize="10" guides="1" tooltips="1" connect="1" arrows="1" fold="1" page="1" pageScale="1" pageWidth="827" pageHeight="1169" math="0" shadow="0">
      <root>
        <mxCell id="0" />
        <mxCell id="1" parent="0" />
        <mxCell id="oo4ou-hroPzYH-o4y6v3-1" value="" style="ellipse;html=1;shape=startState;fillColor=#B5739D;strokeColor=#99004D;" vertex="1" parent="1">
          <mxGeometry x="399" y="30" width="30" height="30" as="geometry" />
        </mxCell>
        <mxCell id="XypOSCwQ_-rzXtEj4ooO-1" value="" style="edgeStyle=orthogonalEdgeStyle;html=1;verticalAlign=bottom;endArrow=open;endSize=8;strokeColor=#99004D;rounded=0;exitX=0.5;exitY=1;exitDx=0;exitDy=0;" edge="1" parent="1" source="oo4ou-hroPzYH-o4y6v3-1">
          <mxGeometry relative="1" as="geometry">
            <mxPoint x="414" y="110" as="targetPoint" />
            <mxPoint x="410" y="100" as="sourcePoint" />
          </mxGeometry>
        </mxCell>
        <mxCell id="W_M71k0jpCbWMns3tyqG-1" value="&lt;b&gt;brak punktów lojalnościowych na koncie&lt;/b&gt;" style="rounded=1;whiteSpace=wrap;html=1;arcSize=40;fontColor=#000000;fillColor=#E6D0DE;strokeColor=#B5739D;" vertex="1" parent="1">
          <mxGeometry x="354" y="110" width="120" height="40" as="geometry" />
        </mxCell>
        <mxCell id="W_M71k0jpCbWMns3tyqG-2" value="&lt;b&gt;dodanie punktów lojalnościowych do salda&lt;/b&gt;" style="rounded=1;whiteSpace=wrap;html=1;arcSize=40;fontColor=#000000;fillColor=#E6D0DE;strokeColor=#B5739D;" vertex="1" parent="1">
          <mxGeometry x="354" y="200" width="120" height="40" as="geometry" />
        </mxCell>
        <mxCell id="W_M71k0jpCbWMns3tyqG-3" value="" style="edgeStyle=orthogonalEdgeStyle;html=1;verticalAlign=bottom;endArrow=open;endSize=8;strokeColor=#99004D;rounded=0;exitX=0.5;exitY=1;exitDx=0;exitDy=0;entryX=0.5;entryY=0;entryDx=0;entryDy=0;" edge="1" parent="1" source="W_M71k0jpCbWMns3tyqG-1" target="W_M71k0jpCbWMns3tyqG-2">
          <mxGeometry relative="1" as="geometry">
            <mxPoint x="420" y="210" as="targetPoint" />
            <mxPoint x="420" y="160" as="sourcePoint" />
          </mxGeometry>
        </mxCell>
        <mxCell id="W_M71k0jpCbWMns3tyqG-4" value="złożenie zamówienia" style="text;html=1;align=center;verticalAlign=middle;resizable=0;points=[];autosize=1;strokeColor=none;fillColor=none;" vertex="1" parent="1">
          <mxGeometry x="284" y="160" width="130" height="30" as="geometry" />
        </mxCell>
        <mxCell id="W_M71k0jpCbWMns3tyqG-5" value="" style="edgeStyle=orthogonalEdgeStyle;html=1;verticalAlign=bottom;endArrow=open;endSize=8;strokeColor=#99004D;rounded=0;exitX=0.5;exitY=1;exitDx=0;exitDy=0;" edge="1" parent="1" source="W_M71k0jpCbWMns3tyqG-2">
          <mxGeometry relative="1" as="geometry">
            <mxPoint x="414" y="290" as="targetPoint" />
            <mxPoint x="420" y="280" as="sourcePoint" />
          </mxGeometry>
        </mxCell>
        <mxCell id="W_M71k0jpCbWMns3tyqG-6" value="wyświetlenie propozycji rabatów" style="text;html=1;align=center;verticalAlign=middle;resizable=0;points=[];autosize=1;strokeColor=none;fillColor=none;" vertex="1" parent="1">
          <mxGeometry x="460" y="400" width="190" height="30" as="geometry" />
        </mxCell>
        <mxCell id="4x_nr6JLCCV0VGsO8hAo-1" value="" style="rhombus;whiteSpace=wrap;html=1;fontColor=#000000;fillColor=#E6D0DE;strokeColor=#B5739D;" vertex="1" parent="1">
          <mxGeometry x="374" y="290" width="80" height="40" as="geometry" />
        </mxCell>
        <mxCell id="opBPwQ7Rpy8Jg0t-HNcl-1" value="" style="ellipse;html=1;shape=endState;fillColor=#B5739D;strokeColor=#99004D;" vertex="1" parent="1">
          <mxGeometry x="710" y="470" width="30" height="30" as="geometry" />
        </mxCell>
        <mxCell id="opBPwQ7Rpy8Jg0t-HNcl-2" value="" style="edgeStyle=orthogonalEdgeStyle;html=1;verticalAlign=bottom;endArrow=open;endSize=8;strokeColor=#99004D;rounded=0;exitX=1;exitY=0.5;exitDx=0;exitDy=0;entryX=0.5;entryY=0;entryDx=0;entryDy=0;" edge="1" parent="1" source="4x_nr6JLCCV0VGsO8hAo-1" target="opBPwQ7Rpy8Jg0t-HNcl-1">
          <mxGeometry relative="1" as="geometry">
            <mxPoint x="570" y="340" as="targetPoint" />
            <mxPoint x="570" y="290" as="sourcePoint" />
          </mxGeometry>
        </mxCell>
        <mxCell id="opBPwQ7Rpy8Jg0t-HNcl-3" value="złożenie kolejnego zamówienia == false&amp;nbsp;" style="text;html=1;align=center;verticalAlign=middle;resizable=0;points=[];autosize=1;strokeColor=none;fillColor=none;" vertex="1" parent="1">
          <mxGeometry x="460" y="280" width="240" height="30" as="geometry" />
        </mxCell>
        <mxCell id="opBPwQ7Rpy8Jg0t-HNcl-4" value="" style="edgeStyle=orthogonalEdgeStyle;html=1;verticalAlign=bottom;endArrow=open;endSize=8;strokeColor=#99004D;rounded=0;exitX=0.5;exitY=1;exitDx=0;exitDy=0;" edge="1" parent="1" source="4x_nr6JLCCV0VGsO8hAo-1">
          <mxGeometry relative="1" as="geometry">
            <mxPoint x="414" y="380" as="targetPoint" />
            <mxPoint x="410" y="390" as="sourcePoint" />
          </mxGeometry>
        </mxCell>
        <mxCell id="opBPwQ7Rpy8Jg0t-HNcl-5" value="złożenie kolejnego zamówienia == true&amp;nbsp;" style="text;html=1;align=center;verticalAlign=middle;resizable=0;points=[];autosize=1;strokeColor=none;fillColor=none;" vertex="1" parent="1">
          <mxGeometry x="179" y="330" width="230" height="30" as="geometry" />
        </mxCell>
        <mxCell id="oOB_1PJQh26hbk-oo1Fu-1" value="" style="shape=line;html=1;strokeWidth=6;strokeColor=#B5739D;fillColor=#B5739D;" vertex="1" parent="1">
          <mxGeometry x="314" y="380" width="200" height="10" as="geometry" />
        </mxCell>
        <mxCell id="X_KhYr--7znu0OMotplp-1" value="" style="edgeStyle=orthogonalEdgeStyle;html=1;verticalAlign=bottom;endArrow=open;endSize=8;strokeColor=#99004D;rounded=0;exitX=0.25;exitY=0.5;exitDx=0;exitDy=0;exitPerimeter=0;" edge="1" parent="1" source="oOB_1PJQh26hbk-oo1Fu-1">
          <mxGeometry relative="1" as="geometry">
            <mxPoint x="364" y="450" as="targetPoint" />
            <mxPoint x="350" y="430" as="sourcePoint" />
          </mxGeometry>
        </mxCell>
        <mxCell id="X_KhYr--7znu0OMotplp-2" value="" style="edgeStyle=orthogonalEdgeStyle;html=1;verticalAlign=bottom;endArrow=open;endSize=8;strokeColor=#99004D;rounded=0;exitX=0.75;exitY=0.5;exitDx=0;exitDy=0;exitPerimeter=0;" edge="1" parent="1" source="oOB_1PJQh26hbk-oo1Fu-1">
          <mxGeometry relative="1" as="geometry">
            <mxPoint x="464" y="450" as="targetPoint" />
            <mxPoint x="500" y="430" as="sourcePoint" />
          </mxGeometry>
        </mxCell>
        <mxCell id="X_KhYr--7znu0OMotplp-4" value="wyświetlenie ilości punktów" style="text;html=1;align=center;verticalAlign=middle;resizable=0;points=[];autosize=1;strokeColor=none;fillColor=none;" vertex="1" parent="1">
          <mxGeometry x="200" y="400" width="170" height="30" as="geometry" />
        </mxCell>
        <mxCell id="mmp8-FwiZif7m0Kd-akZ-1" value="zagospodarowanie punktów przez klienta" style="swimlane;fontStyle=1;align=center;verticalAlign=middle;childLayout=stackLayout;horizontal=1;startSize=30;horizontalStack=0;resizeParent=0;resizeLast=1;container=0;fontColor=#000000;collapsible=0;rounded=1;arcSize=30;strokeColor=#B5739D;fillColor=#E6D0DE;swimlaneFillColor=#ffffc0;dropTarget=0;" vertex="1" parent="1">
          <mxGeometry x="272" y="450" width="284" height="70" as="geometry" />
        </mxCell>
        <mxCell id="mmp8-FwiZif7m0Kd-akZ-2" value="wybór rabatu&lt;div&gt;wyświetlenie zaoszczędzonej kwoty&amp;nbsp;&lt;/div&gt;" style="text;html=1;strokeColor=none;fillColor=#E6D0DE;align=center;verticalAlign=middle;spacingLeft=4;spacingRight=4;whiteSpace=wrap;overflow=hidden;rotatable=0;fontColor=#000000;" vertex="1" parent="mmp8-FwiZif7m0Kd-akZ-1">
          <mxGeometry y="30" width="284" height="40" as="geometry" />
        </mxCell>
        <mxCell id="mmp8-FwiZif7m0Kd-akZ-3" value="" style="edgeStyle=orthogonalEdgeStyle;html=1;verticalAlign=bottom;endArrow=open;endSize=8;strokeColor=#99004D;rounded=0;exitX=0.5;exitY=1;exitDx=0;exitDy=0;" edge="1" parent="1" source="mmp8-FwiZif7m0Kd-akZ-2">
          <mxGeometry relative="1" as="geometry">
            <mxPoint x="414" y="580" as="targetPoint" />
            <mxPoint x="410" y="570" as="sourcePoint" />
          </mxGeometry>
        </mxCell>
        <mxCell id="mmp8-FwiZif7m0Kd-akZ-4" value="" style="shape=line;html=1;strokeWidth=6;strokeColor=#B5739D;fillColor=#B5739D;" vertex="1" parent="1">
          <mxGeometry x="314" y="580" width="200" height="10" as="geometry" />
        </mxCell>
        <mxCell id="mmp8-FwiZif7m0Kd-akZ-5" value="wyświetlenie ostatecznej ilości punktów" style="swimlane;fontStyle=1;align=center;verticalAlign=middle;childLayout=stackLayout;horizontal=1;startSize=30;horizontalStack=0;resizeParent=0;resizeLast=1;container=0;fontColor=#000000;collapsible=0;rounded=1;arcSize=30;strokeColor=#B5739D;fillColor=#E6D0DE;swimlaneFillColor=#ffffc0;dropTarget=0;" vertex="1" parent="1">
          <mxGeometry x="272" y="650" width="284" height="70" as="geometry" />
        </mxCell>
        <mxCell id="mmp8-FwiZif7m0Kd-akZ-6" value="wyświetlenie pozycji w rankingu najaktywniejszych&amp;nbsp;&lt;div&gt;klientów&lt;/div&gt;" style="text;html=1;strokeColor=none;fillColor=#E6D0DE;align=center;verticalAlign=middle;spacingLeft=4;spacingRight=4;whiteSpace=wrap;overflow=hidden;rotatable=0;fontColor=#000000;" vertex="1" parent="mmp8-FwiZif7m0Kd-akZ-5">
          <mxGeometry y="30" width="284" height="40" as="geometry" />
        </mxCell>
        <mxCell id="mmp8-FwiZif7m0Kd-akZ-7" value="" style="edgeStyle=orthogonalEdgeStyle;html=1;verticalAlign=bottom;endArrow=open;endSize=8;strokeColor=#99004D;rounded=0;exitX=0.75;exitY=0.5;exitDx=0;exitDy=0;exitPerimeter=0;" edge="1" parent="1" source="mmp8-FwiZif7m0Kd-akZ-4">
          <mxGeometry relative="1" as="geometry">
            <mxPoint x="464" y="650" as="targetPoint" />
            <mxPoint x="460" y="620" as="sourcePoint" />
          </mxGeometry>
        </mxCell>
        <mxCell id="mmp8-FwiZif7m0Kd-akZ-8" value="" style="edgeStyle=orthogonalEdgeStyle;html=1;verticalAlign=bottom;endArrow=open;endSize=8;strokeColor=#99004D;rounded=0;exitX=0.25;exitY=0.5;exitDx=0;exitDy=0;exitPerimeter=0;" edge="1" parent="1" source="mmp8-FwiZif7m0Kd-akZ-4">
          <mxGeometry relative="1" as="geometry">
            <mxPoint x="364" y="650" as="targetPoint" />
            <mxPoint x="330" y="610" as="sourcePoint" />
          </mxGeometry>
        </mxCell>
        <mxCell id="mmp8-FwiZif7m0Kd-akZ-9" value="dodanie punktów na podstawie&lt;div&gt;&amp;nbsp;aktualnie składanego zamówienia&lt;/div&gt;" style="text;html=1;align=center;verticalAlign=middle;resizable=0;points=[];autosize=1;strokeColor=none;fillColor=none;" vertex="1" parent="1">
          <mxGeometry x="144" y="600" width="210" height="40" as="geometry" />
        </mxCell>
        <mxCell id="mmp8-FwiZif7m0Kd-akZ-10" value="odjęcie punktów na podstawie&amp;nbsp;&lt;div&gt;wykorzystanych rabatów&lt;/div&gt;" style="text;html=1;align=center;verticalAlign=middle;resizable=0;points=[];autosize=1;strokeColor=none;fillColor=none;" vertex="1" parent="1">
          <mxGeometry x="474" y="600" width="190" height="40" as="geometry" />
        </mxCell>
        <mxCell id="mmp8-FwiZif7m0Kd-akZ-11" value="" style="edgeStyle=orthogonalEdgeStyle;html=1;verticalAlign=bottom;endArrow=open;endSize=8;strokeColor=#99004D;rounded=0;exitX=0.5;exitY=1;exitDx=0;exitDy=0;entryX=0.5;entryY=1;entryDx=0;entryDy=0;" edge="1" parent="1" source="mmp8-FwiZif7m0Kd-akZ-6" target="opBPwQ7Rpy8Jg0t-HNcl-1">
          <mxGeometry relative="1" as="geometry">
            <mxPoint x="390" y="840" as="targetPoint" />
            <mxPoint x="390" y="780" as="sourcePoint" />
            <Array as="points">
              <mxPoint x="414" y="740" />
              <mxPoint x="725" y="740" />
            </Array>
          </mxGeometry>
        </mxCell>
      </root>
    </mxGraphModel>
  </diagram>
</mxfile>
